<svg id="SvgjsSvg1060" width="288" height="288" xmlns="http://www.w3.org/2000/svg" version="1.1" xmlns:xlink="http://www.w3.org/1999/xlink" xmlns:svgjs="http://svgjs.com/svgjs"><defs id="SvgjsDefs1061"></defs><g id="SvgjsG1062"><svg xmlns="http://www.w3.org/2000/svg" width="288" height="288" viewBox="0 0 400 400"><path fill="#00b4d8" fill-rule="evenodd" d="M171.100 29.876 C 170.715 29.976,170.400 30.284,170.400 30.560 C 170.400 32.347,168.793 32.800,162.448 32.800 C 155.678 32.800,154.800 33.031,154.800 34.814 L 154.800 36.000 150.200 36.000 L 145.600 36.000 144.017 37.583 C 142.476 39.124,142.353 39.169,139.317 39.283 L 136.200 39.400 136.078 40.649 C 135.945 42.025,134.716 42.400,130.344 42.400 C 128.357 42.400,126.800 43.339,126.800 44.537 C 126.800 44.897,125.912 45.193,124.100 45.437 C 121.604 45.773,121.358 45.894,120.850 47.048 C 120.345 48.195,120.105 48.317,117.891 48.548 C 115.155 48.834,114.400 49.289,114.400 50.649 C 114.400 51.491,114.218 51.600,112.805 51.600 C 111.256 51.600,111.202 51.646,110.956 53.183 L 110.703 54.767 107.852 54.883 L 105.000 55.000 104.876 56.500 C 104.755 57.958,104.708 58.000,103.176 58.000 C 101.946 58.000,101.597 58.154,101.587 58.700 C 101.569 59.737,99.805 60.837,97.676 61.139 C 95.926 61.388,95.792 61.491,95.676 62.680 C 95.564 63.834,95.413 63.966,94.076 64.077 C 92.685 64.193,92.593 64.286,92.476 65.700 C 92.355 67.158,92.308 67.200,90.776 67.200 C 89.204 67.200,89.200 67.204,89.200 68.800 L 89.200 70.400 87.600 70.400 C 86.470 70.400,86.000 70.570,86.000 70.979 C 86.000 71.872,84.207 73.600,83.280 73.600 C 81.581 73.600,80.389 74.357,80.141 75.593 C 79.945 76.575,79.700 76.800,78.830 76.800 C 77.457 76.800,76.800 77.473,76.800 78.880 C 76.800 79.799,76.626 80.000,75.829 80.000 C 74.582 80.000,73.600 80.987,73.600 82.238 C 73.600 82.912,73.292 83.337,72.619 83.593 C 71.670 83.954,70.407 85.818,70.393 86.880 C 70.384 87.601,68.626 89.200,67.844 89.200 C 67.361 89.200,67.200 89.594,67.200 90.776 C 67.200 92.308,67.158 92.355,65.700 92.476 C 64.342 92.588,64.188 92.719,64.078 93.860 C 63.973 94.934,63.760 95.156,62.627 95.368 C 61.448 95.590,61.271 95.796,61.045 97.209 C 60.829 98.562,60.644 98.800,59.809 98.800 C 58.507 98.800,58.000 99.857,58.000 102.574 L 58.000 104.800 56.400 104.800 C 54.805 104.800,54.800 104.804,54.800 106.373 C 54.800 107.789,54.691 107.960,53.709 108.073 C 52.326 108.234,51.614 109.597,51.606 112.100 C 51.600 113.913,51.549 114.000,50.480 114.000 C 48.780 114.000,48.400 114.672,48.400 117.680 L 48.400 120.400 47.043 120.400 C 45.419 120.400,45.200 120.827,45.200 123.990 C 45.200 126.405,44.914 126.800,43.167 126.800 C 42.509 126.800,42.399 127.098,42.395 128.900 C 42.386 132.111,42.113 132.736,40.659 132.878 L 39.400 133.000 39.200 136.200 C 39.018 139.109,38.921 139.411,38.129 139.524 C 36.678 139.731,36.321 140.620,36.055 144.693 L 35.800 148.594 34.618 148.798 C 33.067 149.065,32.889 149.797,32.840 156.100 L 32.800 161.200 31.450 161.200 C 29.704 161.200,29.600 161.707,29.600 170.207 L 29.600 176.713 28.612 176.961 C 26.866 177.400,26.688 178.381,26.482 188.690 L 26.289 198.400 23.977 198.400 C 20.828 198.400,20.400 198.621,20.400 200.243 L 20.400 201.600 18.426 201.600 C 15.470 201.600,14.400 202.129,14.400 203.590 C 14.400 204.735,14.314 204.800,12.800 204.800 C 11.374 204.800,11.200 204.905,11.200 205.767 C 11.200 207.504,10.791 208.000,9.357 208.000 C 8.044 208.000,8.000 208.051,8.000 209.576 C 8.000 211.108,7.958 211.155,6.500 211.276 L 5.000 211.400 4.883 214.277 L 4.766 217.154 3.283 217.277 L 1.800 217.400 1.683 220.500 C 1.579 223.271,1.483 223.600,0.783 223.600 C 0.009 223.600,0.000 224.302,0.000 284.400 C 0.000 344.933,0.004 345.200,0.800 345.200 C 1.492 345.200,1.600 345.467,1.600 347.174 C 1.600 349.976,2.123 351.116,3.479 351.271 C 4.437 351.381,4.619 351.603,4.733 352.797 C 4.882 354.372,5.325 354.785,6.876 354.794 C 7.829 354.799,7.966 354.971,8.076 356.300 C 8.189 357.669,8.313 357.811,9.500 357.925 C 10.454 358.017,10.800 358.248,10.800 358.793 C 10.800 360.288,11.264 360.800,12.619 360.800 C 13.870 360.800,13.959 360.892,14.076 362.300 C 14.194 363.723,14.282 363.810,15.798 364.000 C 17.199 364.175,17.421 364.347,17.601 365.397 C 17.829 366.723,18.696 367.067,22.036 367.153 C 23.577 367.192,23.944 367.359,24.322 368.189 C 25.329 370.399,25.548 370.415,51.956 370.303 L 76.200 370.200 76.301 279.550 L 76.402 188.900 77.607 188.659 C 79.357 188.309,79.600 187.227,79.600 179.774 C 79.600 173.225,79.603 173.200,80.500 173.194 C 82.368 173.181,82.577 172.700,82.736 168.060 L 82.886 163.683 84.020 163.456 C 85.419 163.176,85.994 161.456,85.998 157.545 L 86.000 154.889 87.356 154.635 C 88.906 154.344,89.186 153.718,89.195 150.525 C 89.200 148.478,89.217 148.449,90.500 148.325 L 91.800 148.200 91.917 145.100 L 92.034 142.000 93.617 142.000 L 95.200 142.000 95.200 139.870 C 95.200 137.677,95.940 136.493,97.700 135.872 C 98.188 135.700,98.400 135.197,98.400 134.213 C 98.400 132.932,98.505 132.800,99.520 132.800 C 100.909 132.800,101.597 132.148,101.609 130.820 C 101.615 130.065,101.953 129.644,102.909 129.200 C 104.083 128.654,104.233 128.376,104.567 126.120 C 104.935 123.643,104.936 123.640,106.367 123.520 C 107.704 123.408,107.808 123.301,107.923 121.924 C 108.034 120.587,108.166 120.436,109.323 120.324 C 110.480 120.212,110.612 120.061,110.723 118.723 C 110.838 117.335,110.935 117.238,112.323 117.123 C 113.711 117.007,113.807 116.911,113.923 115.523 C 114.038 114.135,114.135 114.038,115.523 113.923 C 116.911 113.807,117.007 113.711,117.123 112.323 C 117.238 110.935,117.335 110.838,118.723 110.723 C 120.067 110.611,120.211 110.483,120.325 109.300 C 120.440 108.107,120.565 108.000,121.838 108.000 C 122.686 108.000,123.312 107.773,123.450 107.415 C 123.573 107.094,124.008 106.724,124.416 106.595 C 124.825 106.465,125.261 106.038,125.386 105.645 C 125.535 105.174,126.255 104.808,127.506 104.566 C 129.252 104.229,129.410 104.100,129.524 102.923 C 129.636 101.766,129.787 101.634,131.124 101.523 C 132.515 101.407,132.607 101.314,132.724 99.900 L 132.848 98.400 135.191 98.400 C 138.028 98.400,138.800 98.141,138.800 97.190 C 138.800 95.772,139.276 95.200,140.456 95.200 C 142.373 95.200,144.341 94.175,144.629 93.026 C 144.870 92.068,145.045 92.000,147.270 92.000 C 150.142 92.000,151.200 91.512,151.200 90.186 C 151.200 89.268,151.345 89.197,153.300 89.160 C 156.511 89.099,157.308 88.759,157.689 87.287 C 158.022 86.002,158.026 86.000,160.711 85.977 C 165.343 85.937,166.500 85.590,166.879 84.127 L 167.208 82.859 173.019 82.729 C 179.213 82.591,179.580 82.467,179.594 80.500 L 179.600 79.600 200.000 79.600 L 220.400 79.600 220.406 80.500 C 220.420 82.467,220.787 82.591,226.981 82.729 L 232.792 82.859 233.121 84.127 C 233.504 85.603,234.654 85.938,239.475 85.977 L 242.349 86.000 242.475 87.284 C 242.619 88.767,243.361 89.097,246.700 89.160 C 248.474 89.194,248.800 89.317,248.800 89.951 C 248.800 91.159,249.951 91.786,252.561 92.000 C 254.687 92.174,255.016 92.312,255.124 93.071 C 255.313 94.395,256.140 94.852,258.785 95.092 C 261.199 95.311,261.200 95.312,261.200 96.613 C 261.200 98.176,261.652 98.400,264.809 98.400 L 267.152 98.400 267.276 99.900 C 267.393 101.314,267.485 101.407,268.876 101.523 C 270.210 101.634,270.365 101.768,270.476 102.912 C 270.587 104.051,270.770 104.213,272.279 104.509 C 273.383 104.726,274.040 105.096,274.197 105.590 C 274.516 106.595,276.965 108.000,278.398 108.000 C 279.405 108.000,279.565 108.163,279.675 109.300 C 279.789 110.483,279.933 110.611,281.277 110.723 C 282.665 110.838,282.762 110.935,282.877 112.323 C 282.993 113.711,283.089 113.807,284.477 113.923 C 285.865 114.038,285.962 114.135,286.077 115.523 C 286.193 116.911,286.289 117.007,287.677 117.123 C 289.065 117.238,289.162 117.335,289.277 118.723 C 289.393 120.111,289.489 120.207,290.877 120.323 C 292.265 120.438,292.362 120.535,292.477 121.923 C 292.587 123.248,292.727 123.412,293.833 123.520 C 295.018 123.636,295.079 123.736,295.433 126.120 C 295.767 128.376,295.917 128.654,297.091 129.200 C 298.047 129.644,298.385 130.065,298.391 130.820 C 298.403 132.148,299.091 132.800,300.480 132.800 C 301.493 132.800,301.600 132.933,301.600 134.200 C 301.600 135.300,301.943 135.943,303.200 137.200 C 304.533 138.533,304.800 139.067,304.800 140.400 C 304.800 141.997,304.803 142.000,306.383 142.000 L 307.966 142.000 308.083 145.100 L 308.200 148.200 309.500 148.325 C 310.708 148.442,310.800 148.555,310.804 149.925 C 310.815 153.343,311.205 154.365,312.598 154.626 L 313.895 154.869 314.103 158.535 C 314.355 162.980,314.527 163.445,316.026 163.745 L 317.200 163.980 317.200 167.564 C 317.200 172.131,317.577 173.200,319.190 173.200 L 320.400 173.200 320.400 180.226 C 320.400 187.967,320.596 188.800,322.413 188.800 L 323.598 188.800 323.699 279.500 L 323.800 370.200 348.044 370.303 C 374.452 370.415,374.671 370.399,375.678 368.189 C 376.056 367.359,376.423 367.192,377.964 367.153 C 381.304 367.067,382.171 366.723,382.399 365.397 C 382.579 364.347,382.801 364.175,384.202 364.000 C 385.713 363.811,385.807 363.719,385.923 362.323 C 386.038 360.935,386.135 360.838,387.523 360.723 C 388.861 360.612,389.012 360.480,389.124 359.324 C 389.231 358.212,389.412 358.031,390.524 357.924 C 391.680 357.812,391.812 357.661,391.923 356.323 C 392.038 354.935,392.135 354.838,393.523 354.723 C 394.920 354.607,395.011 354.513,395.200 353.000 C 395.375 351.603,395.542 351.384,396.521 351.271 C 397.877 351.116,398.400 349.976,398.400 347.174 C 398.400 345.467,398.508 345.200,399.200 345.200 C 399.996 345.200,400.000 344.933,400.000 284.400 C 400.000 224.302,399.991 223.600,399.217 223.600 C 398.517 223.600,398.421 223.271,398.317 220.500 L 398.200 217.400 396.717 217.277 L 395.234 217.154 395.117 214.277 L 395.000 211.400 393.500 211.276 C 392.042 211.155,392.000 211.108,392.000 209.576 C 392.000 208.057,391.952 208.000,390.671 208.000 C 389.467 208.000,389.306 207.858,388.971 206.500 C 388.633 205.134,388.466 204.989,387.100 204.876 C 385.732 204.763,385.600 204.647,385.600 203.566 C 385.600 202.131,384.512 201.600,381.574 201.600 L 379.600 201.600 379.600 200.243 C 379.600 198.618,379.173 198.400,375.994 198.400 L 373.654 198.400 373.527 189.300 C 373.391 179.548,373.141 178.215,371.298 177.405 C 370.422 177.020,370.399 176.846,370.353 170.405 C 370.292 161.968,370.185 161.437,368.498 161.275 L 367.200 161.149 367.198 156.675 C 367.195 150.920,366.759 149.252,365.177 148.935 L 364.000 148.700 364.000 145.550 C 364.000 143.817,363.863 142.400,363.695 142.400 C 363.527 142.400,363.212 141.995,362.995 141.500 C 362.778 141.005,362.195 140.422,361.700 140.205 C 360.873 139.842,360.800 139.547,360.800 136.548 C 360.800 133.125,360.624 132.800,358.767 132.800 C 358.093 132.800,357.999 132.496,357.994 130.300 C 357.987 127.331,357.777 126.915,356.199 126.736 C 355.044 126.605,354.996 126.520,354.896 124.400 C 354.723 120.715,354.573 120.400,352.992 120.400 L 351.600 120.400 351.600 117.680 C 351.600 114.695,351.218 114.000,349.576 114.000 C 348.561 114.000,348.500 113.883,348.286 111.517 C 348.053 108.948,347.416 108.000,345.924 108.000 C 345.346 108.000,345.200 107.677,345.200 106.400 L 345.200 104.800 343.600 104.800 L 342.000 104.800 341.995 102.900 C 341.986 100.024,341.649 99.190,340.393 98.939 C 339.482 98.756,339.247 98.454,339.047 97.204 C 338.832 95.862,338.648 95.661,337.427 95.431 C 336.233 95.207,336.032 95.001,335.924 93.886 C 335.811 92.715,335.666 92.589,334.300 92.476 C 332.842 92.355,332.800 92.308,332.800 90.776 C 332.800 89.204,332.796 89.200,331.200 89.200 L 329.600 89.200 329.600 87.600 C 329.600 86.720,329.449 86.000,329.264 86.000 C 329.080 86.000,328.730 85.566,328.489 85.035 C 328.247 84.504,327.709 83.962,327.294 83.830 C 326.840 83.686,326.391 82.993,326.169 82.095 C 325.871 80.886,325.551 80.527,324.500 80.217 C 323.466 79.913,323.200 79.622,323.200 78.797 C 323.200 77.476,322.521 76.800,321.192 76.800 C 320.397 76.800,320.006 76.489,319.572 75.512 C 319.131 74.519,318.630 74.129,317.388 73.812 C 315.668 73.373,314.000 71.988,314.000 71.000 C 314.000 70.567,313.556 70.400,312.400 70.400 L 310.800 70.400 310.800 68.800 C 310.800 67.238,310.767 67.200,309.400 67.200 C 308.252 67.200,308.000 67.051,308.000 66.374 C 308.000 64.809,307.255 64.000,305.811 64.000 C 304.569 64.000,304.440 63.887,304.325 62.700 C 304.200 61.402,304.195 61.399,301.300 61.045 L 298.400 60.689 298.400 59.345 C 298.400 58.046,298.346 58.000,296.824 58.000 C 295.292 58.000,295.245 57.958,295.124 56.500 L 295.000 55.000 292.100 54.882 C 289.347 54.771,289.200 54.717,289.200 53.815 C 289.200 52.033,288.800 51.600,287.157 51.600 C 285.784 51.600,285.600 51.487,285.600 50.649 C 285.600 49.286,284.844 48.834,282.079 48.545 C 279.821 48.309,279.621 48.208,279.395 47.178 C 279.109 45.873,278.654 45.656,275.526 45.329 C 273.477 45.115,273.156 44.964,272.942 44.113 C 272.660 42.988,271.385 42.400,269.230 42.400 C 265.297 42.400,264.052 41.989,263.922 40.649 L 263.800 39.400 260.683 39.283 C 257.647 39.169,257.524 39.124,255.983 37.583 L 254.400 36.000 249.800 36.000 L 245.200 36.000 245.200 34.814 C 245.200 32.996,244.368 32.800,236.626 32.800 L 229.600 32.800 229.600 31.590 C 229.600 30.659,229.363 30.290,228.574 29.990 C 227.559 29.604,172.558 29.495,171.100 29.876 M94.400 198.693 C 93.003 198.950,92.400 199.540,92.400 200.649 C 92.400 201.492,92.218 201.600,90.800 201.600 C 89.204 201.600,89.200 201.604,89.200 203.176 C 89.200 204.708,89.158 204.755,87.700 204.876 L 86.200 205.000 86.085 208.671 L 85.971 212.343 84.485 213.647 L 83.000 214.951 83.000 284.776 C 83.000 358.404,82.955 356.617,84.814 357.265 C 85.994 357.676,86.000 357.695,86.000 360.839 L 86.000 364.000 87.600 364.000 L 89.200 364.000 89.200 365.600 C 89.200 367.196,89.204 367.200,90.776 367.200 C 92.308 367.200,92.355 367.242,92.476 368.700 L 92.600 370.200 101.600 370.303 C 111.405 370.416,113.245 370.083,113.522 368.148 C 113.614 367.501,114.013 367.236,115.174 367.051 C 116.924 366.771,117.186 366.233,117.195 362.900 L 117.200 360.800 118.553 360.800 C 120.505 360.800,120.393 365.549,120.347 284.800 C 120.302 204.271,120.398 208.258,118.498 208.075 C 117.275 207.957,117.200 207.858,117.200 206.375 C 117.200 205.117,117.053 204.800,116.470 204.800 C 115.572 204.800,114.000 203.192,114.000 202.274 C 114.000 201.754,113.634 201.600,112.400 201.600 C 110.848 201.600,110.800 201.560,110.800 200.243 C 110.800 199.374,110.572 198.798,110.167 198.643 C 109.451 198.368,95.935 198.411,94.400 198.693 M289.700 198.647 C 289.425 198.768,289.200 199.482,289.200 200.233 C 289.200 201.561,289.154 201.600,287.600 201.600 C 286.318 201.600,286.000 201.745,286.000 202.330 C 286.000 203.228,284.392 204.800,283.474 204.800 C 282.956 204.800,282.800 205.165,282.800 206.375 C 282.800 207.858,282.725 207.957,281.502 208.075 C 279.602 208.258,279.698 204.271,279.653 284.800 C 279.607 365.549,279.495 360.800,281.447 360.800 L 282.800 360.800 282.805 362.900 C 282.814 366.233,283.076 366.771,284.826 367.051 C 285.987 367.236,286.386 367.501,286.478 368.148 C 286.748 370.038,288.629 370.399,298.220 370.399 C 307.714 370.400,308.000 370.339,308.000 368.320 C 308.000 367.307,308.133 367.200,309.400 367.200 C 310.767 367.200,310.800 367.162,310.800 365.600 L 310.800 364.000 312.400 364.000 L 314.000 364.000 314.009 360.900 C 314.017 357.801,314.018 357.800,315.309 357.200 C 317.224 356.310,317.153 359.081,317.168 284.600 C 317.184 208.719,317.332 213.355,314.850 212.027 C 314.144 211.649,314.016 211.137,313.916 208.295 L 313.800 205.000 312.300 204.876 C 310.842 204.755,310.800 204.708,310.800 203.176 C 310.800 201.604,310.796 201.600,309.200 201.600 C 307.782 201.600,307.600 201.492,307.600 200.649 C 307.600 198.774,306.867 198.606,298.239 198.514 C 293.818 198.466,289.975 198.526,289.700 198.647 " class="color049cbc svgShape"></path><path fill="#089cbc" fill-rule="evenodd" class="color089cbc svgShape"></path><path fill="#089cbc" fill-rule="evenodd" class="color089cbc svgShape"></path><path fill="#089cbc" fill-rule="evenodd" class="color089cbc svgShape"></path><path fill="#089cbc" fill-rule="evenodd" class="color089cbc svgShape"></path></svg></g></svg>