<svg id="SvgjsSvg1033" width="288" height="288" xmlns="http://www.w3.org/2000/svg" version="1.1" xmlns:xlink="http://www.w3.org/1999/xlink" xmlns:svgjs="http://svgjs.com/svgjs"><defs id="SvgjsDefs1034"></defs><g id="SvgjsG1035"><svg xmlns="http://www.w3.org/2000/svg" width="288" height="288" viewBox="0 0 400 400"><path fill="#00b4d8" fill-rule="evenodd" d="M45.000 18.800 C 44.864 19.020,44.439 19.200,44.056 19.200 C 43.181 19.200,41.207 20.099,41.203 20.500 C 41.201 20.665,40.840 20.800,40.400 20.800 C 39.960 20.800,39.600 20.980,39.600 21.200 C 39.600 21.420,39.328 21.600,38.996 21.600 C 38.664 21.600,37.828 22.140,37.137 22.800 C 36.446 23.460,35.683 24.004,35.441 24.009 C 35.198 24.013,34.460 24.658,33.800 25.441 C 33.140 26.224,32.015 27.515,31.300 28.311 C 30.585 29.106,30.000 29.991,30.000 30.278 C 30.000 30.565,29.820 30.800,29.600 30.800 C 29.380 30.800,29.200 31.160,29.200 31.600 C 29.200 32.040,29.065 32.401,28.900 32.403 C 28.549 32.407,27.600 34.337,27.600 35.046 C 27.600 35.314,27.455 35.593,27.279 35.667 C 25.349 36.467,23.740 60.702,25.500 62.460 C 25.775 62.735,26.000 63.376,26.000 63.885 C 26.000 64.394,26.180 65.168,26.400 65.605 C 26.620 66.042,26.980 66.758,27.200 67.195 C 27.420 67.632,27.600 68.262,27.600 68.595 C 27.600 68.928,27.780 69.200,28.000 69.200 C 28.220 69.200,28.400 69.560,28.400 70.000 C 28.400 70.440,28.580 70.800,28.800 70.800 C 29.020 70.800,29.200 71.036,29.200 71.325 C 29.200 71.613,29.560 72.236,30.000 72.708 C 30.440 73.180,30.800 73.667,30.800 73.789 C 30.800 74.260,37.616 80.800,38.106 80.800 C 38.391 80.800,38.883 81.160,39.200 81.600 C 39.517 82.040,40.097 82.400,40.488 82.400 C 40.880 82.400,41.200 82.580,41.200 82.800 C 41.200 83.020,41.650 83.200,42.200 83.200 C 42.750 83.200,43.200 83.380,43.200 83.600 C 43.200 83.820,43.729 84.000,44.376 84.000 C 45.023 84.000,45.664 84.180,45.800 84.400 C 45.964 84.666,99.804 84.800,206.024 84.800 C 312.408 84.800,366.000 84.666,366.000 84.400 C 366.000 84.180,366.529 84.000,367.176 84.000 C 367.823 84.000,368.464 83.820,368.600 83.600 C 368.736 83.380,369.287 83.200,369.824 83.200 C 370.361 83.200,370.800 83.020,370.800 82.800 C 370.800 82.580,371.160 82.400,371.600 82.400 C 372.040 82.400,372.400 82.220,372.400 82.000 C 372.400 81.780,372.594 81.600,372.831 81.600 C 373.069 81.600,373.997 80.880,374.895 80.000 C 375.793 79.120,376.703 78.400,376.917 78.400 C 377.432 78.400,379.199 76.331,379.200 75.727 C 379.200 75.467,379.560 75.140,380.000 75.000 C 380.440 74.860,380.800 74.488,380.800 74.173 C 380.800 73.858,380.980 73.600,381.200 73.600 C 381.420 73.600,381.600 73.330,381.600 73.000 C 381.600 72.670,381.780 72.400,382.000 72.400 C 382.220 72.400,382.400 72.040,382.400 71.600 C 382.400 71.160,382.580 70.800,382.800 70.800 C 383.020 70.800,383.200 70.530,383.200 70.200 C 383.200 69.870,383.380 69.600,383.600 69.600 C 383.820 69.600,384.000 69.251,384.000 68.824 C 384.000 68.397,384.180 67.936,384.400 67.800 C 384.620 67.664,384.800 67.203,384.800 66.776 C 384.800 66.349,384.980 66.000,385.200 66.000 C 385.420 66.000,385.600 65.460,385.600 64.800 C 385.600 64.140,385.780 63.600,386.000 63.600 C 386.220 63.600,386.400 62.880,386.400 62.000 C 386.400 61.120,386.580 60.400,386.800 60.400 C 387.025 60.400,387.200 59.275,387.200 57.824 C 387.200 56.407,387.380 55.136,387.600 55.000 C 388.122 54.678,388.122 48.522,387.600 48.200 C 387.380 48.064,387.200 46.804,387.200 45.400 C 387.200 43.996,387.020 42.736,386.800 42.600 C 386.580 42.464,386.400 41.733,386.400 40.976 C 386.400 40.219,386.220 39.600,386.000 39.600 C 385.780 39.600,385.600 39.060,385.600 38.400 C 385.600 37.740,385.420 37.200,385.200 37.200 C 384.980 37.200,384.800 36.660,384.800 36.000 C 384.800 35.340,384.620 34.800,384.400 34.800 C 384.180 34.800,384.000 34.440,384.000 34.000 C 384.000 33.560,383.820 33.200,383.600 33.200 C 383.380 33.200,383.200 32.880,383.200 32.488 C 383.200 32.097,382.840 31.517,382.400 31.200 C 381.960 30.883,381.600 30.343,381.600 30.000 C 381.600 29.657,381.240 29.117,380.800 28.800 C 380.360 28.483,380.000 28.064,380.000 27.868 C 380.000 27.377,375.712 23.200,375.209 23.200 C 374.984 23.200,374.800 23.050,374.800 22.868 C 374.800 22.685,374.305 22.280,373.700 21.968 C 373.095 21.656,372.510 21.311,372.400 21.201 C 371.924 20.723,370.361 20.000,369.805 20.000 C 369.472 20.000,369.200 19.820,369.200 19.600 C 369.200 19.380,368.660 19.200,368.000 19.200 C 367.340 19.200,366.800 19.020,366.800 18.800 C 366.800 18.534,312.941 18.400,206.024 18.400 C 99.271 18.400,45.164 18.534,45.000 18.800 M45.000 149.200 C 44.864 149.420,44.439 149.600,44.056 149.600 C 43.181 149.600,41.207 150.499,41.203 150.900 C 41.201 151.065,40.840 151.200,40.400 151.200 C 39.960 151.200,39.600 151.380,39.600 151.600 C 39.600 151.820,39.328 152.000,38.996 152.000 C 38.664 152.000,37.828 152.540,37.137 153.200 C 36.446 153.860,35.722 154.400,35.527 154.400 C 35.035 154.400,32.400 157.082,32.400 157.583 C 32.400 157.809,31.860 158.509,31.200 159.140 C 30.540 159.771,30.000 160.492,30.000 160.743 C 30.000 160.994,29.820 161.200,29.600 161.200 C 29.380 161.200,29.200 161.560,29.200 162.000 C 29.200 162.440,29.065 162.801,28.900 162.803 C 28.549 162.807,27.600 164.737,27.600 165.446 C 27.600 165.714,27.455 165.993,27.279 166.067 C 25.349 166.867,23.740 191.102,25.500 192.860 C 25.775 193.135,26.000 193.853,26.000 194.456 C 26.000 195.059,26.180 195.664,26.400 195.800 C 26.620 195.936,26.800 196.487,26.800 197.024 C 26.800 197.561,26.980 198.000,27.200 198.000 C 27.420 198.000,27.600 198.360,27.600 198.800 C 27.600 199.240,27.780 199.600,28.000 199.600 C 28.220 199.600,28.400 199.960,28.400 200.400 C 28.400 200.840,28.580 201.200,28.800 201.200 C 29.020 201.200,29.200 201.520,29.200 201.912 C 29.200 202.303,29.560 202.883,30.000 203.200 C 30.440 203.517,30.800 203.989,30.800 204.248 C 30.800 204.680,32.609 206.581,36.179 209.900 C 36.948 210.615,37.813 211.200,38.100 211.200 C 38.388 211.200,38.883 211.560,39.200 212.000 C 39.517 212.440,40.097 212.800,40.488 212.800 C 40.880 212.800,41.200 212.980,41.200 213.200 C 41.200 213.420,41.650 213.600,42.200 213.600 C 42.750 213.600,43.200 213.780,43.200 214.000 C 43.200 214.220,43.729 214.400,44.376 214.400 C 45.023 214.400,45.664 214.580,45.800 214.800 C 45.964 215.066,99.804 215.200,206.024 215.200 C 312.408 215.200,366.000 215.066,366.000 214.800 C 366.000 214.580,366.529 214.400,367.176 214.400 C 367.823 214.400,368.464 214.220,368.600 214.000 C 368.736 213.780,369.287 213.600,369.824 213.600 C 370.361 213.600,370.800 213.420,370.800 213.200 C 370.800 212.980,371.160 212.800,371.600 212.800 C 372.040 212.800,372.400 212.620,372.400 212.400 C 372.400 212.180,372.670 212.000,373.000 212.000 C 373.330 212.000,373.600 211.820,373.600 211.600 C 373.600 211.380,373.858 211.200,374.173 211.200 C 374.488 211.200,374.851 210.869,374.980 210.464 C 375.108 210.059,375.705 209.474,376.307 209.164 C 377.483 208.557,378.400 207.797,378.400 207.429 C 378.400 207.304,379.120 206.459,380.000 205.552 C 380.880 204.645,381.600 203.655,381.600 203.352 C 381.600 203.048,381.759 202.800,381.953 202.800 C 382.148 202.800,382.407 202.485,382.529 202.100 C 382.651 201.715,383.059 200.860,383.436 200.200 C 384.529 198.286,384.800 197.651,384.800 197.005 C 384.800 196.672,384.980 196.400,385.200 196.400 C 385.420 196.400,385.600 195.860,385.600 195.200 C 385.600 194.540,385.780 194.000,386.000 194.000 C 386.220 194.000,386.400 193.280,386.400 192.400 C 386.400 191.520,386.580 190.800,386.800 190.800 C 387.025 190.800,387.200 189.675,387.200 188.224 C 387.200 186.807,387.380 185.536,387.600 185.400 C 388.122 185.078,388.122 178.922,387.600 178.600 C 387.380 178.464,387.200 177.193,387.200 175.776 C 387.200 174.325,387.025 173.200,386.800 173.200 C 386.580 173.200,386.400 172.480,386.400 171.600 C 386.400 170.720,386.220 170.000,386.000 170.000 C 385.780 170.000,385.600 169.460,385.600 168.800 C 385.600 168.140,385.420 167.600,385.200 167.600 C 384.980 167.600,384.800 167.161,384.800 166.624 C 384.800 166.087,384.620 165.536,384.400 165.400 C 384.180 165.264,384.000 164.803,384.000 164.376 C 384.000 163.949,383.820 163.600,383.600 163.600 C 383.380 163.600,383.200 163.364,383.200 163.075 C 383.200 162.787,382.885 162.202,382.500 161.775 C 382.115 161.349,381.545 160.505,381.232 159.900 C 380.920 159.295,380.515 158.800,380.332 158.800 C 380.150 158.800,380.000 158.616,380.000 158.391 C 380.000 157.971,375.796 153.600,375.392 153.600 C 375.268 153.600,374.780 153.240,374.308 152.800 C 373.836 152.360,373.213 152.000,372.925 152.000 C 372.636 152.000,372.400 151.820,372.400 151.600 C 372.400 151.380,372.040 151.200,371.600 151.200 C 371.160 151.200,370.800 151.020,370.800 150.800 C 370.800 150.580,370.440 150.400,370.000 150.400 C 369.560 150.400,369.200 150.220,369.200 150.000 C 369.200 149.780,368.660 149.600,368.000 149.600 C 367.340 149.600,366.800 149.420,366.800 149.200 C 366.800 148.934,312.941 148.800,206.024 148.800 C 99.271 148.800,45.164 148.934,45.000 149.200 M45.000 279.600 C 44.864 279.820,44.439 280.000,44.056 280.000 C 43.181 280.000,41.207 280.899,41.203 281.300 C 41.201 281.465,40.840 281.600,40.400 281.600 C 39.960 281.600,39.600 281.780,39.600 282.000 C 39.600 282.220,39.328 282.400,38.996 282.400 C 38.664 282.400,37.828 282.940,37.137 283.600 C 36.446 284.260,35.707 284.800,35.495 284.800 C 35.023 284.800,32.400 287.613,32.400 288.118 C 32.400 288.316,31.860 288.983,31.200 289.600 C 30.540 290.217,30.000 291.009,30.000 291.360 C 30.000 291.712,29.820 292.000,29.600 292.000 C 29.380 292.000,29.200 292.270,29.200 292.600 C 29.200 292.930,29.065 293.201,28.900 293.203 C 28.549 293.207,27.600 295.137,27.600 295.846 C 27.600 296.114,27.455 296.393,27.279 296.467 C 24.613 297.572,23.941 321.289,26.439 326.095 C 26.638 326.477,26.800 327.152,26.800 327.595 C 26.800 328.038,26.980 328.400,27.200 328.400 C 27.420 328.400,27.600 328.760,27.600 329.200 C 27.600 329.640,27.780 330.000,28.000 330.000 C 28.220 330.000,28.400 330.360,28.400 330.800 C 28.400 331.240,28.580 331.600,28.800 331.600 C 29.020 331.600,29.200 331.920,29.200 332.312 C 29.200 332.703,29.560 333.283,30.000 333.600 C 30.440 333.917,30.800 334.415,30.800 334.705 C 30.800 335.488,37.120 341.600,37.929 341.600 C 38.311 341.600,38.883 341.960,39.200 342.400 C 39.517 342.840,40.097 343.200,40.488 343.200 C 40.880 343.200,41.200 343.380,41.200 343.600 C 41.200 343.820,41.650 344.000,42.200 344.000 C 42.750 344.000,43.200 344.180,43.200 344.400 C 43.200 344.620,43.729 344.800,44.376 344.800 C 45.023 344.800,45.664 344.980,45.800 345.200 C 45.964 345.466,99.804 345.600,206.024 345.600 C 312.408 345.600,366.000 345.466,366.000 345.200 C 366.000 344.980,366.529 344.800,367.176 344.800 C 367.823 344.800,368.464 344.620,368.600 344.400 C 368.736 344.180,369.287 344.000,369.824 344.000 C 370.361 344.000,370.800 343.820,370.800 343.600 C 370.800 343.380,371.160 343.200,371.600 343.200 C 372.040 343.200,372.400 343.020,372.400 342.800 C 372.400 342.580,372.670 342.400,373.000 342.400 C 373.330 342.400,373.600 342.220,373.600 342.000 C 373.600 341.780,373.796 341.600,374.036 341.600 C 374.502 341.600,376.246 340.116,377.954 338.267 C 378.529 337.643,379.585 336.524,380.300 335.780 C 381.015 335.036,381.600 334.151,381.600 333.813 C 381.600 333.476,381.759 333.200,381.953 333.200 C 382.148 333.200,382.407 332.885,382.529 332.500 C 382.651 332.115,383.059 331.260,383.436 330.600 C 384.529 328.686,384.800 328.051,384.800 327.405 C 384.800 327.072,384.980 326.800,385.200 326.800 C 385.420 326.800,385.600 326.260,385.600 325.600 C 385.600 324.940,385.780 324.400,386.000 324.400 C 386.220 324.400,386.400 323.781,386.400 323.024 C 386.400 322.267,386.580 321.536,386.800 321.400 C 387.020 321.264,387.200 320.004,387.200 318.600 C 387.200 317.196,387.380 315.936,387.600 315.800 C 388.127 315.474,388.127 309.200,387.600 309.200 C 387.371 309.200,387.200 308.000,387.200 306.400 C 387.200 304.800,387.029 303.600,386.800 303.600 C 386.580 303.600,386.400 302.880,386.400 302.000 C 386.400 301.120,386.220 300.400,386.000 300.400 C 385.780 300.400,385.600 299.860,385.600 299.200 C 385.600 298.540,385.420 298.000,385.200 298.000 C 384.980 298.000,384.800 297.657,384.800 297.238 C 384.800 296.280,383.230 293.212,382.300 292.353 C 381.915 291.997,381.600 291.452,381.600 291.141 C 381.600 290.831,381.240 290.317,380.800 290.000 C 380.360 289.683,380.000 289.189,380.000 288.903 C 380.000 288.291,375.807 284.000,375.209 284.000 C 374.984 284.000,374.800 283.850,374.800 283.668 C 374.800 283.485,374.305 283.080,373.700 282.768 C 373.095 282.456,372.510 282.111,372.400 282.001 C 371.924 281.523,370.361 280.800,369.805 280.800 C 369.472 280.800,369.200 280.620,369.200 280.400 C 369.200 280.180,368.660 280.000,368.000 280.000 C 367.340 280.000,366.800 279.820,366.800 279.600 C 366.800 279.334,312.941 279.200,206.024 279.200 C 99.271 279.200,45.164 279.334,45.000 279.600 " class="color049cbc svgShape"></path><path fill="#089cbc" fill-rule="evenodd" class="color089cbc svgShape"></path><path fill="#089cbc" fill-rule="evenodd" class="color089cbc svgShape"></path><path fill="#089cbc" fill-rule="evenodd" class="color089cbc svgShape"></path><path fill="#089cbc" fill-rule="evenodd" class="color089cbc svgShape"></path></svg></g></svg>