<svg id="svg" version="1.1" xmlns="http://www.w3.org/2000/svg" xmlns:xlink="http://www.w3.org/1999/xlink" width="400" height="400" viewBox="0, 0, 400,400"><g id="svgg"><path id="path0" d="M0.000 85.156 L 0.000 129.688 44.531 129.688 L 89.063 129.688 89.063 85.156 L 89.063 40.625 44.531 40.625 L 0.000 40.625 0.000 85.156 M116.406 85.156 L 116.406 129.688 258.203 129.688 L 400.000 129.688 400.000 85.156 L 400.000 40.625 258.203 40.625 L 116.406 40.625 116.406 85.156 M0.000 200.000 L 0.000 244.531 44.531 244.531 L 89.063 244.531 89.063 200.000 L 89.063 155.469 44.531 155.469 L 0.000 155.469 0.000 200.000 M116.406 200.000 L 116.406 244.531 258.203 244.531 L 400.000 244.531 400.000 200.000 L 400.000 155.469 258.203 155.469 L 116.406 155.469 116.406 200.000 M0.000 314.844 L 0.000 359.375 44.531 359.375 L 89.063 359.375 89.063 314.844 L 89.063 270.313 44.531 270.313 L 0.000 270.313 0.000 314.844 M116.406 314.844 L 116.406 359.375 258.203 359.375 L 400.000 359.375 400.000 314.844 L 400.000 270.313 258.203 270.313 L 116.406 270.313 116.406 314.844 " stroke="none" fill="#000000" fill-rule="evenodd"></path></g></svg>